<svg width="1200" height="630" viewBox="0 0 1200 630" fill="none" xmlns="http://www.w3.org/2000/svg">
  <rect width="1200" height="630" fill="#0A0A14"/>
  <g opacity="0.32">
    <path d="M0 180H1200" stroke="#FF124F" stroke-opacity="0.18"/>
    <path d="M0 315H1200" stroke="#37D7FF" stroke-opacity="0.1"/>
    <path d="M0 450H1200" stroke="#FF124F" stroke-opacity="0.14"/>
    <path d="M180 0V630" stroke="#FFFFFF" stroke-opacity="0.04"/>
    <path d="M420 0V630" stroke="#FFFFFF" stroke-opacity="0.04"/>
    <path d="M780 0V630" stroke="#FFFFFF" stroke-opacity="0.04"/>
    <path d="M1020 0V630" stroke="#FFFFFF" stroke-opacity="0.04"/>
  </g>
  <circle cx="600" cy="315" r="250" fill="url(#redGlow)" opacity="0.7"/>
  <circle cx="600" cy="315" r="170" fill="url(#cyanGlow)" opacity="0.4"/>
  <rect x="78" y="78" width="1044" height="474" rx="34" stroke="#FF124F" stroke-opacity="0.34"/>
  <circle cx="150" cy="150" r="34" stroke="#FF124F" stroke-width="4"/>
  <path d="M130 126H143L150 170L157 126H170L158 182H142L130 126Z" fill="#FF124F"/>
  <text x="98" y="282" fill="#FF124F" font-family="Arial, Helvetica, sans-serif" font-size="26" font-weight="800" letter-spacing="8">VINAY YADAV</text>
  <text x="98" y="360" fill="#F5F1FF" font-family="Arial, Helvetica, sans-serif" font-size="70" font-weight="900">FULL STACK</text>
  <text x="98" y="438" fill="#F5F1FF" font-family="Arial, Helvetica, sans-serif" font-size="70" font-weight="900">DEVELOPER</text>
  <text x="98" y="496" fill="#A7A0BD" font-family="Arial, Helvetica, sans-serif" font-size="26">React, Node.js, MongoDB and AI-powered web solutions</text>
  <defs>
    <radialGradient id="redGlow" cx="0" cy="0" r="1" gradientUnits="userSpaceOnUse" gradientTransform="translate(600 315) rotate(90) scale(250)">
      <stop stop-color="#FF124F" stop-opacity="0.34"/>
      <stop offset="1" stop-color="#FF124F" stop-opacity="0"/>
    </radialGradient>
    <radialGradient id="cyanGlow" cx="0" cy="0" r="1" gradientUnits="userSpaceOnUse" gradientTransform="translate(600 315) rotate(90) scale(170)">
      <stop stop-color="#37D7FF" stop-opacity="0.22"/>
      <stop offset="1" stop-color="#37D7FF" stop-opacity="0"/>
    </radialGradient>
  </defs>
</svg>
